<svg height="464pt" viewBox="0 -80 464 464" width="464pt" xmlns="http://www.w3.org/2000/svg"><g fill="#ffd782"><path d="m440 216s-64-32-80-32v-32c16 0 80-32 80-32 5.351562-1.832031 11.246094-1.0625 15.953125 2.070312 4.703125 3.136719 7.679687 8.289063 8.046875 13.929688v64c-.367188 5.640625-3.34375 10.792969-8.046875 13.929688-4.707031 3.132812-10.601563 3.902343-15.953125 2.070312zm0 0"/><path d="m104 248s72 56 128 56-24-56-24-56zm0 0"/><path d="m256 240s88 24 96 0c2.265625-6.359375 1.839844-13.371094-1.179688-19.410156-3.019531-6.039063-8.371093-10.585938-14.820312-12.589844zm0 0"/><path d="m240 96h-144s40-72 152-72h.160156c9.714844-.207031 19.421875.625 28.960938 2.480469 57.757812 12.558593-37.121094 69.519531-37.121094 69.519531zm0 0"/><path d="m280 104s40-32 80-32 24 48-32 56zm0 0"/></g><path d="m376 168c0 16-72 88-200 88s-176-72-176-88 64-88 176-88c120 0 200 72 200 88zm0 0" fill="#f7ac4b"/><path d="m91.199219 243.398438c14.234375 4.621093 28.859375 7.929687 43.695312 9.890624 15.320313-26.234374 47.371094-97.023437.800781-170.050781-13.78125 2.265625-27.335937 5.761719-40.496093 10.449219 14.855469 27.191406 30.554687 78.976562-4 149.710938zm0 0" fill="#fcec97"/><path d="m256.496094 245.671875c-3.625-48.703125-5.601563-110.96875 2.527344-153.824219-19.238282-5.601562-39-9.238281-58.976563-10.847656-4.367187 20.75-7.058594 41.816406-8.046875 63 0 40 24 40 24 64-.769531 15.613281-3.199219 31.101562-7.246094 46.199219 16.113282-1.570313 32.078125-4.421875 47.742188-8.527344zm0 0" fill="#fcec97"/><path d="m277.039062 239.472656c14.027344-4.855468 27.621094-10.878906 40.632813-18.015625 12.648437-33.3125 13.589844-69.9375 2.664063-103.855469-12.21875-6.910156-24.933594-12.902343-38.039063-17.929687 13.421875 27.921875 24.566406 75.945313-5.257813 139.800781zm0 0" fill="#fcec97"/><path d="m416 160h48v16h-48zm0 0" fill="#ebb562"/><path d="m277.121094 26.480469c-10.480469 5.441406-31.761719 16.878906-48.722656 28.160156l-8.796876-13.28125c9.199219-6.160156 19.359376-12.160156 28.558594-17.359375 9.714844-.207031 19.421875.625 28.960938 2.480469zm0 0" fill="#ebb562"/><path d="m56 144h16v16h-16zm0 0" fill="#394d5c"/><path d="m40 72c0 8.835938-7.164062 16-16 16s-16-7.164062-16-16 7.164062-16 16-16 16 7.164062 16 16zm0 0" fill="#87cee9"/><path d="m96 24c0 13.253906-10.746094 24-24 24s-24-10.746094-24-24 10.746094-24 24-24 24 10.746094 24 24zm0 0" fill="#87cee9"/></svg>